# xmcd
#
# Track frame offsets: 
#        150
#        29463
#        46917
#        65227
#        92384
#        119487
#        145840
#        170732
#        194577
#        226694
#        248084
#        266255
#        283669
#        301398
#
# Disc length: 4283 seconds
#
# Revision: 0
# Processed by: cddbd v1.5.2PL0 Copyright (c) Steve Scherf et al.
# Submitted via: ExactAudioCopy v0.99pb4
#
DISCID=c610b90e
DTITLE=Various Artist - Classic Cuts 9 - Classic Soul
DYEAR=1900
DGENRE=Soul
TTITLE0=Someone Elses's Guy - Jocelyn Brown
TTITLE1=Saturday Love - Cherelle with Alexander O'Neal
TTITLE2=I Found Lovin' - Fatback Band
TTITLE3=Ain't Nothing Going On But The Rent - Gwen Guthrie
TTITLE4=Hanging on a String - Loose Ends
TTITLE5=Roses Are Red - Mac Band feat The McCambell Bros
TTITLE6=All Night Long - Mary Jane Girls
TTITLE7=Love Town - Booker Newbury II
TTITLE8=Criticize - Alexander O'Neal
TTITLE9=Ain't Nobody - Rufus and Chaka Khan
TTITLE10=Just Be Good To Me - SOS Band
TTITLE11=Back to Life (However Do You Want Me) - Soul II Soul feat Car
TTITLE11=on Wheeler
TTITLE12=Never Too Much - Luther Vandross
TTITLE13=The Best Things in Life Are Free - Luther Vandross and Janet Ja
TTITLE13=ckson
EXTD=
EXTT0=
EXTT1=
EXTT2=
EXTT3=
EXTT4=
EXTT5=
EXTT6=
EXTT7=
EXTT8=
EXTT9=
EXTT10=
EXTT11=
EXTT12=
EXTT13=
PLAYORDER=
